<?xml version="1.0" standalone="no"?>
<!DOCTYPE svg PUBLIC "-//W3C//DTD SVG 20010904//EN"
 "http://www.w3.org/TR/2001/REC-SVG-20010904/DTD/svg10.dtd">
<svg version="1.0" xmlns="http://www.w3.org/2000/svg"
 width="192.000000pt" height="192.000000pt" viewBox="0 0 192.000000 192.000000"
 preserveAspectRatio="xMidYMid meet">

<g transform="translate(0.000000,192.000000) scale(0.100000,-0.100000)"
fill="#262626" stroke="none">
<path d="M0 960 l0 -960 960 0 960 0 0 260 0 260 -70 0 -70 0 0 -190 0 -190
-820 0 -820 0 0 820 0 820 820 0 820 0 0 -190 0 -190 70 0 70 0 0 260 0 260
-960 0 -960 0 0 -960z"/>
<path d="M784 1601 c-175 -45 -274 -208 -274 -451 0 -169 45 -297 131 -374 65
-59 131 -81 235 -80 68 0 91 5 138 28 31 15 69 43 84 62 15 19 30 34 35 34 4
0 7 -106 7 -235 l0 -235 110 0 110 0 0 620 0 620 -110 0 -110 0 0 -50 c0 -27
-4 -50 -8 -50 -4 0 -24 16 -43 36 -54 56 -101 76 -194 80 -44 2 -94 0 -111 -5z
m246 -196 c75 -39 111 -118 113 -245 1 -103 -15 -166 -56 -215 -38 -47 -81
-65 -152 -65 -112 0 -174 62 -195 194 -28 175 32 319 144 347 38 10 112 1 146
-16z"/>
</g>
</svg>
