<?xml version="1.0" standalone="no"?>
<!DOCTYPE svg PUBLIC "-//W3C//DTD SVG 20010904//EN"
 "http://www.w3.org/TR/2001/REC-SVG-20010904/DTD/svg10.dtd">
<svg version="1.0" xmlns="http://www.w3.org/2000/svg"
 width="1440.000000pt" height="1440.000000pt" viewBox="0 0 1440.000000 1440.000000"
 preserveAspectRatio="xMidYMid meet">

<g transform="translate(0.000000,1440.000000) scale(0.100000,-0.100000)"
fill="#1f1f1f" stroke="none">
<path d="M788 12010 c-65 -27 -121 -63 -140 -91 -9 -13 -35 -44 -59 -69 -23
-25 -55 -74 -72 -110 l-29 -65 6 -220 c3 -121 6 -2019 6 -4218 0 -4348 -4
-4044 52 -4172 59 -134 179 -221 353 -256 71 -15 12567 -14 12690 0 108 13
169 31 230 67 103 60 169 150 213 289 18 55 22 1173 22 6128 l0 2287 -21 68
c-12 37 -25 69 -28 72 -3 3 -17 28 -31 55 -55 113 -167 185 -342 221 -93 19
-414 20 -8352 13 -2967 -3 -3985 -1 -4090 8 -219 18 -352 16 -408 -7z m3812
-500 c1636 -1 3589 2 4340 5 751 4 2086 4 2968 -1 l1603 -7 22 -31 22 -31 3
-4025 3 -4026 -21 -27 c-42 -53 -66 -35 -150 113 -54 95 -74 128 -143 230
-156 232 -268 405 -370 575 -7 11 -30 47 -52 81 -22 34 -69 108 -105 165 -36
57 -98 152 -137 213 -40 60 -73 111 -73 112 0 5 -125 202 -206 324 -38 58 -71
110 -74 115 -6 12 -33 54 -164 255 -129 196 -351 543 -391 609 -6 9 -32 50
-59 91 -27 41 -99 156 -159 255 -61 99 -119 189 -129 201 -10 11 -18 23 -18
27 0 8 -37 62 -85 124 -41 52 -87 82 -165 108 -60 20 -85 19 -154 -5 -112 -40
-164 -88 -261 -241 -35 -56 -127 -196 -233 -356 -67 -102 -122 -187 -122 -190
0 -2 -17 -27 -38 -56 -21 -29 -42 -59 -45 -67 -4 -8 -20 -35 -37 -60 -16 -25
-44 -70 -62 -100 -17 -30 -36 -59 -40 -65 -5 -5 -30 -44 -57 -85 -26 -41 -70
-108 -97 -149 -27 -40 -54 -82 -60 -92 -6 -10 -18 -27 -26 -36 -15 -17 -58
-89 -106 -176 -23 -43 -65 -87 -84 -87 -15 0 -66 58 -91 103 -32 59 -67 113
-246 381 -58 88 -108 165 -111 171 -5 11 -70 110 -200 305 -42 63 -79 122 -83
130 -4 8 -36 60 -71 115 -36 55 -90 143 -122 195 -31 52 -95 156 -142 230 -47
74 -107 173 -135 220 -28 47 -67 111 -89 143 -21 32 -38 60 -38 62 0 2 -25 44
-57 92 -94 147 -185 287 -204 315 -11 15 -19 30 -19 33 0 3 -37 63 -82 133
-45 70 -97 152 -116 182 -19 30 -42 66 -51 80 -10 14 -32 50 -50 80 -18 30
-45 75 -61 100 -16 25 -45 72 -65 105 -20 33 -54 87 -75 120 -22 33 -50 77
-62 99 -23 39 -28 47 -62 101 -11 17 -29 46 -41 65 -12 19 -38 60 -57 90 -19
30 -53 83 -74 118 -21 35 -58 93 -81 129 -24 35 -43 68 -43 72 0 4 -9 16 -20
26 -11 10 -20 22 -20 27 0 5 -14 29 -30 54 -71 102 -186 150 -296 124 -31 -8
-66 -22 -79 -32 -13 -10 -27 -18 -32 -18 -15 0 -84 -79 -120 -135 -18 -27 -36
-54 -41 -60 -4 -5 -23 -37 -42 -70 -19 -33 -49 -81 -67 -107 -18 -26 -33 -51
-33 -56 0 -4 -10 -22 -23 -39 -12 -17 -28 -39 -34 -50 -100 -149 -223 -342
-223 -349 0 -3 -43 -71 -97 -152 -53 -81 -118 -181 -145 -222 -27 -41 -53 -82
-59 -90 -29 -45 -62 -99 -92 -152 -6 -13 -29 -49 -50 -80 -20 -32 -54 -84 -74
-115 -38 -58 -53 -83 -80 -135 -8 -15 -18 -30 -23 -33 -5 -3 -23 -31 -41 -63
-18 -31 -35 -59 -39 -62 -3 -3 -19 -27 -35 -55 -16 -27 -53 -88 -83 -135 -82
-127 -182 -281 -203 -312 -11 -15 -19 -29 -19 -32 0 -3 -15 -26 -32 -52 -32
-45 -59 -88 -82 -129 -6 -11 -37 -59 -69 -106 -31 -47 -57 -91 -57 -96 0 -6
-7 -17 -16 -24 -9 -7 -20 -22 -26 -34 -12 -26 -39 -71 -118 -194 -36 -56 -73
-115 -82 -131 -39 -65 -54 -90 -85 -134 -18 -26 -33 -49 -33 -52 0 -3 -18 -32
-40 -65 -22 -33 -40 -62 -40 -64 0 -13 -62 -100 -80 -112 -11 -8 -32 -13 -47
-11 -26 3 -43 25 -138 171 -5 8 -25 37 -44 63 -19 27 -57 82 -85 123 -28 40
-58 83 -66 94 -8 12 -55 79 -105 149 -49 70 -110 157 -135 193 -74 109 -134
189 -150 202 -8 7 -39 26 -67 43 -46 26 -62 30 -130 30 -106 0 -171 -29 -246
-109 -18 -19 -40 -41 -49 -50 -10 -8 -18 -19 -18 -24 0 -5 -15 -27 -32 -50
-18 -22 -40 -51 -48 -63 -23 -35 -113 -164 -151 -218 -19 -26 -41 -58 -49 -71
-53 -81 -365 -515 -385 -536 -8 -9 -15 -19 -15 -24 0 -5 -7 -17 -17 -27 -9
-10 -21 -26 -27 -36 -37 -62 -76 -121 -111 -167 -22 -30 -50 -69 -63 -87 -13
-18 -50 -70 -83 -115 -32 -45 -59 -84 -59 -87 0 -3 -15 -26 -32 -52 -18 -25
-37 -53 -43 -62 -5 -9 -33 -48 -61 -87 -28 -39 -57 -81 -63 -94 -7 -12 -19
-30 -26 -39 -34 -41 -175 -234 -196 -269 -12 -21 -49 -73 -81 -116 -32 -43
-58 -82 -58 -86 0 -5 -7 -14 -15 -21 -12 -10 -70 -90 -100 -139 -23 -36 -127
-187 -154 -222 -27 -36 -56 -42 -78 -17 -23 26 -22 -219 -22 4118 l0 3475 24
37 25 37 107 3 c60 2 189 2 288 1 99 -1 1519 -2 3155 -3z"/>
<path d="M10305 10863 c-16 -2 -44 -11 -62 -19 -17 -7 -36 -14 -42 -14 -5 0
-45 -18 -88 -41 -205 -108 -349 -303 -394 -535 -22 -112 -22 -153 1 -304 31
-212 193 -423 407 -530 230 -115 464 -111 723 13 166 80 287 224 357 427 24
69 26 89 27 250 1 168 0 178 -28 255 -16 44 -34 87 -41 95 -7 8 -14 22 -17 30
-8 21 -94 135 -130 170 -16 17 -55 47 -86 67 -31 21 -63 43 -70 50 -7 7 -18
13 -24 13 -6 0 -29 9 -52 19 -98 46 -147 55 -301 57 -82 1 -163 0 -180 -3z"/>
</g>
</svg>
